<svg width="40" height="40" viewBox="0 0 40 40" fill="none" xmlns="http://www.w3.org/2000/svg">
<circle cx="20" cy="20" r="20" fill="#FFFBEB"/>
<path d="M13.9604 17.86C13.9604 18.47 13.8204 19.03 13.5404 19.54C13.2604 20.04 12.8304 20.445 12.2504 20.755C11.6704 21.065 10.9504 21.22 10.0904 21.22H8.50037V25H5.93537V14.47H10.0904C10.9304 14.47 11.6404 14.615 12.2204 14.905C12.8004 15.195 13.2354 15.595 13.5254 16.105C13.8154 16.615 13.9604 17.2 13.9604 17.86ZM9.89537 19.18C10.3854 19.18 10.7504 19.065 10.9904 18.835C11.2304 18.605 11.3504 18.28 11.3504 17.86C11.3504 17.44 11.2304 17.115 10.9904 16.885C10.7504 16.655 10.3854 16.54 9.89537 16.54H8.50037V19.18H9.89537ZM22.1507 14.47V16.525H17.8607V18.745H21.0707V20.74H17.8607V25H15.2957V14.47H22.1507ZM23.0638 19.72C23.0638 18.68 23.2888 17.755 23.7388 16.945C24.1888 16.125 24.8138 15.49 25.6138 15.04C26.4238 14.58 27.3388 14.35 28.3588 14.35C29.6088 14.35 30.6788 14.68 31.5688 15.34C32.4588 16 33.0538 16.9 33.3538 18.04H30.5338C30.3238 17.6 30.0238 17.265 29.6338 17.035C29.2538 16.805 28.8188 16.69 28.3288 16.69C27.5388 16.69 26.8988 16.965 26.4088 17.515C25.9188 18.065 25.6738 18.8 25.6738 19.72C25.6738 20.64 25.9188 21.375 26.4088 21.925C26.8988 22.475 27.5388 22.75 28.3288 22.75C28.8188 22.75 29.2538 22.635 29.6338 22.405C30.0238 22.175 30.3238 21.84 30.5338 21.4H33.3538C33.0538 22.54 32.4588 23.44 31.5688 24.1C30.6788 24.75 29.6088 25.075 28.3588 25.075C27.3388 25.075 26.4238 24.85 25.6138 24.4C24.8138 23.94 24.1888 23.305 23.7388 22.495C23.2888 21.685 23.0638 20.76 23.0638 19.72Z" fill="#251749"/>
</svg>
